<?xml version="1.0" standalone="no"?>
<!DOCTYPE svg PUBLIC "-//W3C//DTD SVG 20010904//EN"
 "http://www.w3.org/TR/2001/REC-SVG-20010904/DTD/svg10.dtd">
<svg version="1.0" xmlns="http://www.w3.org/2000/svg"
 width="125.000000pt" height="125.000000pt" viewBox="0 0 110.000000 130.000000"
 preserveAspectRatio="xMidYMid meet">
<metadata>
Created by potrace 1.15, written by Peter Selinger 2001-2017
</metadata>
<g transform="translate(0.000000,125.000000) scale(0.100000,-0.100000)"
fill="#ffcc00" stroke="none">
<path d="M44 935 c-16 -41 -1 -45 151 -45 l147 0 -96 -106 c-65 -72 -96 -114
-96 -130 0 -26 4 -28 67 -24 118 6 200 -84 178 -197 -14 -76 -120 -144 -199
-129 -17 4 -48 18 -69 33 -30 21 -42 24 -55 16 -33 -20 -26 -50 19 -80 60 -39
173 -45 242 -13 125 59 172 203 107 329 -23 46 -98 101 -136 101 -13 0 -25 4
-29 10 -3 5 33 51 80 103 61 68 85 102 85 121 l0 26 -195 0 c-165 0 -197 -2
-201 -15z"/>
<path d="M615 937 c-3 -6 -4 -163 -3 -347 l3 -335 170 -3 c198 -3 237 4 300
60 82 72 123 210 105 350 -18 139 -72 223 -170 267 -40 18 -65 21 -223 21
-134 0 -179 -3 -182 -13z m327 -58 c73 -15 140 -83 164 -165 25 -85 16 -204
-20 -278 -48 -98 -117 -126 -307 -126 l-99 0 0 290 0 290 105 0 c57 0 128 -5
157 -11z"/>
</g>
</svg>
