<?xml version="1.0" standalone="no"?>
<!DOCTYPE svg PUBLIC "-//W3C//DTD SVG 20010904//EN"
 "http://www.w3.org/TR/2001/REC-SVG-20010904/DTD/svg10.dtd">
<svg version="1.0" xmlns="http://www.w3.org/2000/svg"
 width="130.000000pt" height="125.000000pt" viewBox="5 0 130.000000 125.000000"
 preserveAspectRatio="xMidYMid meet">
<metadata>
Created by potrace 1.15, written by Peter Selinger 2001-2017
</metadata>
<g transform="translate(0.000000,125.000000) scale(0.100000,-0.100000)"
fill="#ffcc00" stroke="none">
<path d="M283 946 c-96 -31 -177 -109 -214 -205 -31 -80 -31 -204 1 -286 32
-82 114 -164 195 -194 84 -32 214 -27 298 11 48 23 57 31 57 53 0 38 -24 41
-91 10 -149 -67 -305 -14 -381 128 -19 35 -23 58 -23 137 0 79 4 102 23 137
30 57 97 119 148 139 60 23 174 16 236 -14 59 -29 82 -26 86 11 3 25 -2 30
-55 54 -47 22 -76 28 -148 30 -56 2 -106 -2 -132 -11z"/>
<path d="M745 937 c-3 -6 -4 -163 -3 -347 l3 -335 33 -3 32 -3 0 145 0 146
130 0 c146 0 179 -10 205 -60 8 -16 15 -49 15 -73 0 -95 33 -157 83 -157 35 0
42 28 16 63 -15 20 -24 53 -30 104 -9 78 -35 135 -70 154 -19 10 -18 12 12 32
52 35 74 82 74 158 0 82 -31 136 -97 168 -40 19 -61 21 -221 21 -134 0 -179
-3 -182 -13z m330 -57 c61 -14 95 -58 95 -121 0 -63 -26 -110 -74 -133 -26
-12 -65 -16 -160 -16 l-126 0 0 140 0 140 113 0 c61 0 130 -5 152 -10z"/>
</g>
</svg>
