<!DOCTYPE svg PUBLIC "-//W3C//DTD SVG 20010904//EN" "http://www.w3.org/TR/2001/REC-SVG-20010904/DTD/svg10.dtd">
<svg version="1.0" xmlns="http://www.w3.org/2000/svg" width="1100px" height="300px" viewBox="0 0 10570 2670" preserveAspectRatio="xMidYMid meet">
<g id="layer1" fill="#f8c90c" stroke="none">
 <path d="M80 1325 l0 -1255 1140 0 1140 0 0 1255 0 1255 -1140 0 -1140 0 0 -1255z m2014 1009 c14 -6 16 -104 16 -1010 l0 -1004 -890 0 -890 0 0 1004 c0 794 3 1005 13 1009 18 8 1732 8 1751 1z"/>
 </g>
<g id="layer2" fill="#fcfcfd" stroke="none">
 <path d="M0 1335 l0 -1335 5285 0 5285 0 0 1335 0 1335 -5285 0 -5285 0 0 -1335z m3040 0 l0 -1265 -190 0 -190 0 0 1265 0 1265 190 0 190 0 0 -1265z m519 1216 c37 -172 38 -462 4 -876 -24 -295 -24 -762 0 -864 17 -74 53 -152 72 -158 6 -2 9 55 7 161 -6 255 43 635 119 926 16 63 46 180 66 259 l36 144 29 -34 c43 -52 134 -243 162 -344 107 -378 55 -809 -133 -1102 -58 -91 -170 -203 -246 -247 -27 -16 -51 -30 -52 -30 -1 -1 20 -72 46 -159 l49 -157 -159 0 -159 0 0 1265 0 1265 74 0 74 0 11 -49z m1051 -1216 l0 -1265 -331 0 -331 0 56 46 c105 87 226 244 301 394 127 253 187 521 187 840 1 495 -139 899 -406 1178 l-69 72 296 0 297 0 0 -1265z m878 1186 c-329 -350 -472 -936 -372 -1531 36 -216 133 -461 252 -639 31 -47 101 -130 155 -184 l97 -97 -325 0 -325 0 0 1265 0 1265 296 0 296 0 -74 -79z m612 -1186 l0 -1265 -115 0 c-85 0 -115 3 -115 13 0 6 20 76 44 155 l44 142 -68 45 c-278 185 -433 556 -417 1000 15 408 190 754 455 897 l31 16 -33 109 c-18 59 -36 118 -40 131 -7 22 -7 22 103 22 l111 0 0 -1265z m545 1243 c3 -13 57 -306 120 -653 64 -346 165 -901 225 -1231 61 -331 110 -607 110 -613 0 -8 -90 -11 -320 -11 l-320 0 0 1265 0 1265 90 0 c85 0 90 -1 95 -22z m665 3 c0 -29 -40 -294 -45 -299 -2 -2 -32 16 -67 40 -35 24 -91 61 -124 81 -34 20 -66 43 -72 49 -5 7 -13 43 -17 81 l-7 67 166 0 c158 0 166 -1 166 -19z m3160 -1246 l0 -1265 -1255 0 -1255 0 0 125 0 125 -25 0 c-23 0 -24 -2 -27 -82 l-3 -83 -30 80 c-26 69 -33 80 -54 80 -20 0 -28 -11 -55 -80 l-31 -80 -3 83 c-3 80 -3 82 -27 82 l-25 0 0 -125 c0 -118 -1 -125 -20 -125 -11 0 -20 5 -20 10 0 6 -18 10 -40 10 l-40 0 0 115 0 115 -30 0 -30 0 0 -115 0 -115 -40 0 c-22 0 -40 -4 -40 -10 0 -6 -45 -10 -116 -10 l-116 0 7 38 c46 270 323 1773 328 1778 3 3 50 -13 104 -36 157 -67 270 -102 354 -107 79 -6 129 1 129 16 0 5 -37 20 -83 35 -46 14 -130 49 -188 79 -108 55 -271 157 -284 176 -5 9 75 490 90 539 4 9 295 12 1415 12 l1410 0 0 -1265z m-8110 -10 l0 -1255 -1140 0 -1140 0 0 1255 0 1255 1140 0 1140 0 0 -1255z m4862 707 c7 -7 -68 -601 -77 -610 -3 -3 -5 -1 -5 4 0 5 -18 149 -40 319 -22 171 -40 320 -40 331 0 22 1 22 78 -8 42 -16 80 -33 84 -36z m668 -1959 c0 -2 -31 -3 -70 -3 l-70 0 20 50 c11 27 27 66 35 87 l16 38 35 -84 c19 -47 34 -86 34 -88z"/>
 <path d="M343 2333 c-10 -4 -13 -215 -13 -1009 l0 -1004 890 0 890 0 0 1004 c0 906 -2 1004 -16 1010 -19 7 -1733 7 -1751 -1z m1617 -279 c22 -65 40 -123 40 -129 0 -5 -20 -21 -45 -34 -104 -55 -209 -206 -251 -361 -24 -90 -24 -300 0 -390 42 -156 147 -305 256 -367 l48 -27 -43 -124 c-24 -68 -46 -126 -49 -129 -10 -10 -145 77 -207 134 -114 106 -206 264 -251 433 -20 74 -23 109 -23 275 0 168 3 200 23 275 68 247 212 441 406 544 27 14 51 25 53 23 2 -2 21 -57 43 -123z m-1323 70 c237 -132 394 -418 410 -746 16 -317 -83 -582 -287 -771 -63 -58 -192 -139 -203 -127 -14 16 -85 256 -77 258 6 2 37 22 70 43 65 44 134 128 175 215 83 176 90 425 15 613 -44 111 -139 227 -227 273 -24 13 -42 28 -39 33 2 6 21 63 42 128 21 64 43 117 48 117 5 0 38 -16 73 -36z m723 -804 l0 -810 -120 0 -120 0 0 810 0 810 120 0 120 0 0 -810z"/>
 </g>
<g id="layer3" fill="#020163" stroke="none">
 <path d="M2660 1335 l0 -1265 190 0 190 0 0 1265 0 1265 -190 0 -190 0 0 -1265z"/>
 <path d="M3400 1335 l0 -1265 159 0 159 0 -49 157 c-26 87 -47 158 -46 159 1 0 25 14 52 30 76 44 188 156 246 247 188 293 240 724 133 1102 -28 101 -119 292 -162 344 l-29 34 -36 -144 c-20 -79 -50 -196 -66 -259 -76 -291 -125 -671 -119 -926 2 -106 -1 -163 -7 -161 -19 6 -55 84 -72 158 -24 102 -24 569 0 864 34 414 33 704 -4 876 l-11 49 -74 0 -74 0 0 -1265z"/>
 <path d="M4086 2528 c267 -279 407 -683 406 -1178 0 -319 -60 -587 -187 -840 -75 -150 -196 -307 -301 -394 l-56 -46 331 0 331 0 0 1265 0 1265 -297 0 -296 0 69 -72z"/>
 <path d="M4970 1335 l0 -1265 325 0 325 0 -97 97 c-54 54 -124 137 -155 184 -119 178 -216 423 -252 639 -100 595 43 1181 372 1531 l74 79 -296 0 -296 0 0 -1265z"/>
 <path d="M5886 2578 c4 -13 22 -72 40 -131 l33 -109 -31 -16 c-265 -143 -440 -489 -455 -897 -16 -444 139 -815 417 -1000 l68 -45 -44 -142 c-24 -79 -44 -149 -44 -155 0 -10 30 -13 115 -13 l115 0 0 1265 0 1265 -111 0 c-110 0 -110 0 -103 -22z"/>
 <path d="M6460 1335 l0 -1265 320 0 c230 0 320 3 320 11 0 6 -49 282 -110 613 -60 330 -161 885 -225 1231 -63 347 -117 640 -120 653 -5 21 -10 22 -95 22 l-90 0 0 -1265z"/>
 <path d="M6985 2533 c4 -38 12 -74 17 -81 6 -6 38 -29 72 -49 33 -20 89 -57 124 -81 35 -24 65 -42 67 -40 5 5 45 270 45 299 0 18 -8 19 -166 19 l-166 0 7 -67z"/>
 <path d="M7645 2588 c-15 -49 -95 -530 -90 -539 13 -19 176 -121 284 -176 58 -30 142 -65 188 -79 46 -15 83 -30 83 -35 0 -15 -50 -22 -129 -16 -84 5 -197 40 -354 107 -54 23 -101 39 -104 36 -5 -5 -282 -1508 -328 -1778 l-7 -38 116 0 c71 0 116 4 116 10 0 6 18 10 40 10 l40 0 0 115 0 115 30 0 30 0 0 -115 0 -115 40 0 c22 0 40 -4 40 -10 0 -5 9 -10 20 -10 19 0 20 7 20 125 l0 125 25 0 c24 0 24 -2 27 -82 l3 -83 31 80 c27 69 35 80 55 80 21 0 28 -11 54 -80 l30 -80 3 83 c3 80 4 82 27 82 l25 0 0 -125 0 -125 1255 0 1255 0 0 1265 0 1265 -1410 0 c-1120 0 -1411 -3 -1415 -12z"/>
 <path d="M1864 2154 c-194 -103 -338 -297 -406 -544 -20 -75 -23 -107 -23 -275 0 -166 3 -201 23 -275 45 -169 137 -327 251 -433 62 -57 197 -144 207 -134 3 3 25 61 49 129 l43 124 -48 27 c-109 62 -214 211 -256 367 -24 90 -24 300 0 390 42 155 147 306 251 361 25 13 45 29 45 34 0 12 -77 246 -83 252 -2 2 -26 -9 -53 -23z"/>
 <path d="M516 2043 c-21 -65 -40 -122 -42 -128 -3 -5 15 -20 39 -33 88 -46 183 -162 227 -273 75 -188 68 -437 -15 -613 -41 -87 -110 -171 -175 -215 -33 -21 -64 -41 -70 -43 -8 -2 63 -242 77 -258 11 -12 140 69 203 127 204 189 303 454 287 771 -13 267 -109 489 -281 649 -58 55 -177 133 -202 133 -5 0 -27 -53 -48 -117z"/>
 <path d="M1120 1320 l0 -810 120 0 120 0 0 810 0 810 -120 0 -120 0 0 -810z"/>
 <path d="M7060 2076 c0 -11 18 -160 40 -331 22 -170 40 -314 40 -319 0 -5 2 -7 5 -4 9 9 84 603 77 610 -4 3 -42 20 -84 36 -77 30 -78 30 -78 8z"/>
 <path d="M7805 207 c-8 -21 -24 -60 -35 -87 l-20 -50 70 0 c39 0 70 1 70 3 0 2 -15 41 -34 88 l-35 84 -16 -38z"/>
 </g>

</svg>